<?xml version="1.0" encoding="UTF-8" standalone="no"?>
<!-- Created with Inkscape (http://www.inkscape.org/) -->

<svg
   version="1.1"
   id="svg1989"
   xml:space="preserve"
   width="682.66669"
   height="682.66669"
   viewBox="0 0 682.66669 682.66669"
   xmlns="http://www.w3.org/2000/svg"
   xmlns:svg="http://www.w3.org/2000/svg"><defs
     id="defs1993"><clipPath
       clipPathUnits="userSpaceOnUse"
       id="clipPath2003"><path
         d="M 0,512 H 512 V 0 H 0 Z"
         id="path2001" /></clipPath></defs><g
     id="g1995"
     transform="matrix(1.3333333,0,0,-1.3333333,0,682.66667)"><g
       id="g1997"><g
         id="g1999"
         clip-path="url(#clipPath2003)"><g
           id="g2005"
           transform="translate(208.6758,50.7964)"><path
             d="m 0,0 c 12.982,-6.431 28.845,-6.461 42.326,1.33 l 10.712,6.191 c 0,0 0,-0.01 0.01,0"
             style="fill:none;stroke:#dfdfdf;stroke-width:15;stroke-linecap:round;stroke-linejoin:round;stroke-miterlimit:10;stroke-dasharray:none;stroke-opacity:1"
             id="path2007" /></g><g
           id="g2009"
           transform="translate(485.2598,269.6602)"><path
             d="M 0,0 13.221,-22.9 C 25.59,-44.34 18.26,-71.73 -3.17,-84.11 l -122.63,-70.8"
             style="fill:none;stroke:#dfdfdf;stroke-width:15;stroke-linecap:round;stroke-linejoin:round;stroke-miterlimit:10;stroke-dasharray:none;stroke-opacity:1"
             id="path2011" /></g><g
           id="g2013"
           transform="translate(338.0957,94.2729)"><path
             d="m 0,0 v -0.01 l -21.093,-25.134 c -3.631,-4.331 -7.912,-7.801 -12.582,-10.392"
             style="fill:none;stroke:#dfdfdf;stroke-width:15;stroke-linecap:round;stroke-linejoin:round;stroke-miterlimit:10;stroke-dasharray:none;stroke-opacity:1"
             id="path2015" /></g><g
           id="g2017"
           transform="translate(227.2285,85.9517)"><path
             d="m 0,0 26.645,-22.354 c 6.371,-5.34 13.792,-8.611 21.443,-9.871"
             style="fill:none;stroke:#dfdfdf;stroke-width:15;stroke-linecap:round;stroke-linejoin:round;stroke-miterlimit:10;stroke-dasharray:none;stroke-opacity:1"
             id="path2019" /></g><g
           id="g2021"
           transform="translate(363.2695,124.2773)"><path
             d="m 0,0 0.01,0.01 125.229,149.253 c 15.923,18.943 13.443,47.207 -5.51,63.11 l -32.505,27.274"
             style="fill:none;stroke:#dfdfdf;stroke-width:15;stroke-linecap:round;stroke-linejoin:round;stroke-miterlimit:10;stroke-dasharray:none;stroke-opacity:1"
             id="path2023" /></g><g
           id="g2025"
           transform="translate(358.1084,452.6177)"><path
             d="m 0,0 67.98,-24.744 c 23.254,-8.461 35.247,-34.175 26.775,-57.428 L 3.501,-332.911 c -8.472,-23.263 -34.186,-35.235 -57.439,-26.784 l -71.691,26.094"
             style="fill:none;stroke:#dfdfdf;stroke-width:15;stroke-linecap:round;stroke-linejoin:round;stroke-miterlimit:10;stroke-dasharray:none;stroke-opacity:1"
             id="path2027" /></g><g
           id="g2029"
           transform="translate(85.8867,227.2334)"><path
             d="m 0,0 v 232.436 c 0,24.753 20.063,44.806 44.808,44.806 h 182.607 c 24.744,0 44.807,-20.053 44.807,-44.806 V 194.07"
             style="fill:none;stroke:#dfdfdf;stroke-width:15;stroke-linecap:round;stroke-linejoin:round;stroke-miterlimit:10;stroke-dasharray:none;stroke-opacity:1"
             id="path2031" /></g><g
           id="g2033"
           transform="translate(358.1084,391.2983)"><path
             d="m 0,0 v -198.46 c 0,-24.744 -20.062,-44.807 -44.807,-44.807 h -84.333"
             style="fill:none;stroke:#dfdfdf;stroke-width:15;stroke-linecap:round;stroke-linejoin:round;stroke-miterlimit:10;stroke-dasharray:none;stroke-opacity:1"
             id="path2035" /></g><g
           id="g2037"
           transform="translate(287.127,326.2554)"><path
             d="M 0,0 -65.128,94.651 -130.255,0 -65.128,-94.651 Z"
             style="fill:none;stroke:#dfdfdf;stroke-width:15;stroke-linecap:round;stroke-linejoin:round;stroke-miterlimit:10;stroke-dasharray:none;stroke-opacity:1"
             id="path2039" /></g><g
           id="g2041"
           transform="translate(407.1104,386.8423)"><path
             d="M 0,0 -9.26,-25.439"
             style="fill:none;stroke:#dfdfdf;stroke-width:15;stroke-linecap:round;stroke-linejoin:round;stroke-miterlimit:10;stroke-dasharray:none;stroke-opacity:1"
             id="path2043" /></g><g
           id="g2045"
           transform="translate(419.8301,382.2124)"><path
             d="M 0,0 -25.439,9.259"
             style="fill:none;stroke:#dfdfdf;stroke-width:15;stroke-linecap:round;stroke-linejoin:round;stroke-miterlimit:10;stroke-dasharray:none;stroke-opacity:1"
             id="path2047" /></g><g
           id="g2049"
           transform="translate(131.7588,467.6323)"><path
             d="M 0,0 V -27.072"
             style="fill:none;stroke:#dfdfdf;stroke-width:15;stroke-linecap:round;stroke-linejoin:round;stroke-miterlimit:10;stroke-dasharray:none;stroke-opacity:1"
             id="path2051" /></g><g
           id="g2053"
           transform="translate(145.2949,467.6323)"><path
             d="M 0,0 H -27.072"
             style="fill:none;stroke:#dfdfdf;stroke-width:15;stroke-linecap:round;stroke-linejoin:round;stroke-miterlimit:10;stroke-dasharray:none;stroke-opacity:1"
             id="path2055" /></g><g
           id="g2057"
           transform="translate(312.2393,184.8779)"><path
             d="M 0,0 V 27.072"
             style="fill:none;stroke:#dfdfdf;stroke-width:15;stroke-linecap:round;stroke-linejoin:round;stroke-miterlimit:10;stroke-dasharray:none;stroke-opacity:1"
             id="path2059" /></g><g
           id="g2061"
           transform="translate(298.7041,184.8779)"><path
             d="M 0,0 H 27.071"
             style="fill:none;stroke:#dfdfdf;stroke-width:15;stroke-linecap:round;stroke-linejoin:round;stroke-miterlimit:10;stroke-dasharray:none;stroke-opacity:1"
             id="path2063" /></g><g
           id="g2065"
           transform="translate(232.4883,120.0112)"><path
             d="m 0,0 c 0,62.127 -50.364,112.491 -112.492,112.491 -62.127,0 -112.491,-50.364 -112.491,-112.491 0,-62.127 50.364,-112.492 112.491,-112.492 C -50.364,-112.492 0,-62.127 0,0 Z"
             style="fill:none;stroke:#dfdfdf;stroke-width:15;stroke-linecap:round;stroke-linejoin:round;stroke-miterlimit:10;stroke-dasharray:none;stroke-opacity:1"
             id="path2067" /></g><g
           id="g2069"
           transform="translate(187.374,120.0112)"><path
             d="m 0,0 c 0,37.211 -30.166,67.378 -67.378,67.378 -37.211,0 -67.378,-30.167 -67.378,-67.378 0,-37.212 30.167,-67.378 67.378,-67.378 C -30.166,-67.378 0,-37.212 0,0 Z"
             style="fill:none;stroke:#dfdfdf;stroke-width:15;stroke-linecap:round;stroke-linejoin:round;stroke-miterlimit:10;stroke-dasharray:none;stroke-opacity:1"
             id="path2071" /></g><g
           id="g2073"
           transform="translate(119.9922,7.5195)"><path
             d="M 0,0 V 45.117"
             style="fill:none;stroke:#dfdfdf;stroke-width:15;stroke-linecap:butt;stroke-linejoin:round;stroke-miterlimit:10;stroke-dasharray:none;stroke-opacity:1"
             id="path2075" /></g><g
           id="g2077"
           transform="translate(119.9922,187.3872)"><path
             d="M 0,0 V 45.117"
             style="fill:none;stroke:#dfdfdf;stroke-width:15;stroke-linecap:butt;stroke-linejoin:round;stroke-miterlimit:10;stroke-dasharray:none;stroke-opacity:1"
             id="path2079" /></g><g
           id="g2081"
           transform="translate(63.7461,22.5908)"><path
             d="M 0,0 22.559,39.072"
             style="fill:none;stroke:#dfdfdf;stroke-width:15;stroke-linecap:butt;stroke-linejoin:round;stroke-miterlimit:10;stroke-dasharray:none;stroke-opacity:1"
             id="path2083" /></g><g
           id="g2085"
           transform="translate(153.6797,178.3604)"><path
             d="M 0,0 22.559,39.073"
             style="fill:none;stroke:#dfdfdf;stroke-width:15;stroke-linecap:butt;stroke-linejoin:round;stroke-miterlimit:10;stroke-dasharray:none;stroke-opacity:1"
             id="path2087" /></g><g
           id="g2089"
           transform="translate(22.5713,63.7656)"><path
             d="M 0,0 39.072,22.559"
             style="fill:none;stroke:#dfdfdf;stroke-width:15;stroke-linecap:butt;stroke-linejoin:round;stroke-miterlimit:10;stroke-dasharray:none;stroke-opacity:1"
             id="path2091" /></g><g
           id="g2093"
           transform="translate(178.3408,153.6997)"><path
             d="M 0,0 39.072,22.558"
             style="fill:none;stroke:#dfdfdf;stroke-width:15;stroke-linecap:butt;stroke-linejoin:round;stroke-miterlimit:10;stroke-dasharray:none;stroke-opacity:1"
             id="path2095" /></g><g
           id="g2097"
           transform="translate(7.5,120.0117)"><path
             d="M 0,0 H 45.117"
             style="fill:none;stroke:#dfdfdf;stroke-width:15;stroke-linecap:butt;stroke-linejoin:round;stroke-miterlimit:10;stroke-dasharray:none;stroke-opacity:1"
             id="path2099" /></g><g
           id="g2101"
           transform="translate(187.3672,120.0117)"><path
             d="M 0,0 H 45.117"
             style="fill:none;stroke:#dfdfdf;stroke-width:15;stroke-linecap:butt;stroke-linejoin:round;stroke-miterlimit:10;stroke-dasharray:none;stroke-opacity:1"
             id="path2103" /></g><g
           id="g2105"
           transform="translate(22.5713,176.2578)"><path
             d="M 0,0 39.072,-22.558"
             style="fill:none;stroke:#dfdfdf;stroke-width:15;stroke-linecap:butt;stroke-linejoin:round;stroke-miterlimit:10;stroke-dasharray:none;stroke-opacity:1"
             id="path2107" /></g><g
           id="g2109"
           transform="translate(178.3408,86.3242)"><path
             d="M 0,0 39.072,-22.559"
             style="fill:none;stroke:#dfdfdf;stroke-width:15;stroke-linecap:butt;stroke-linejoin:round;stroke-miterlimit:10;stroke-dasharray:none;stroke-opacity:1"
             id="path2111" /></g><g
           id="g2113"
           transform="translate(63.7461,217.4331)"><path
             d="M 0,0 22.559,-39.073"
             style="fill:none;stroke:#dfdfdf;stroke-width:15;stroke-linecap:butt;stroke-linejoin:round;stroke-miterlimit:10;stroke-dasharray:none;stroke-opacity:1"
             id="path2115" /></g><g
           id="g2117"
           transform="translate(153.6797,61.6631)"><path
             d="M 0,0 22.559,-39.072"
             style="fill:none;stroke:#dfdfdf;stroke-width:15;stroke-linecap:butt;stroke-linejoin:round;stroke-miterlimit:10;stroke-dasharray:none;stroke-opacity:1"
             id="path2119" /></g><g
           id="g2121"
           transform="translate(92.1367,145.4268)"><path
             d="M 0,0 V -50.832"
             style="fill:none;stroke:#dfdfdf;stroke-width:15;stroke-linecap:round;stroke-linejoin:round;stroke-miterlimit:10;stroke-dasharray:none;stroke-opacity:1"
             id="path2123" /></g><g
           id="g2125"
           transform="translate(147.8555,120.0112)"><path
             d="m 0,0 c 0,15.386 -7.002,27.859 -15.64,27.859 -8.638,0 -15.64,-12.473 -15.64,-27.859 0,-15.387 7.002,-27.859 15.64,-27.859 C -7.002,-27.859 0,-15.387 0,0 Z"
             style="fill:none;stroke:#dfdfdf;stroke-width:15;stroke-linecap:round;stroke-linejoin:round;stroke-miterlimit:10;stroke-dasharray:none;stroke-opacity:1"
             id="path2127" /></g></g></g></g></svg>
