<svg clip-rule="evenodd" fill-rule="evenodd" stroke-linejoin="round" stroke-miterlimit="2" viewBox="0 0 267 267" xmlns="http://www.w3.org/2000/svg"><g transform="matrix(4.167 0 0 4.167 -2000 0)"><path style="fill: #c1c1c1;" d="m505.578 36.615 1.623-1.91c.38-.447.937-.705 1.524-.705h10.355c.9 0 1.633.147 1.5.987-.131.823-1.503 1.632-2.554 2.195l-.067-.002-.931.537c-3.481 1.996-6.973 3.875-10.478 5.63 0 .001-.001.001-.001.001-.86.429-1.807.652-2.768.652h-2.281c-.39 0-.744-.226-.908-.58-.163-.354-.106-.771.146-1.068l4.875-5.735zm-13.079-11.864c4.618-.106 9.213-.164 13.783-.169l-5.044-5.934c-.252-.297-.309-.714-.146-1.068.164-.354.518-.58.908-.58h2.281c.961 0 1.908.223 2.768.652 0 0 .001 0 .001.001 4.341 2.174 8.663 4.538 12.967 7.078 2.088.049 4.169.109 6.245.183l.39.022v3.763c0 1.463.781 2.649 2.153 3.156 1.745.645 4.445-.088 5.974-.854.197-.099 1.846-1.11 3.043-2.056l.725.175c1.439.348 2.453 1.636 2.453 3.117 0 .078-.008.155-.026.232-.074 1.014-.63 1.937-1.503 2.476-.032.02-.066.038-.101.055-2.63 1.23-6.99 1.871-12.105 2.107-1.84.085-3.781.12-5.773.116.606-.613.963-1.294 1.063-1.922.14-.882-.08-1.529-.42-2.026-.513-.751-1.628-1.275-3.055-1.275h-10.355c-1.174 0-2.288.515-3.048 1.41l-2.584 3.039c-4.169-.292-8.241-1.404-11.98-3.274l-6.76-3.38c-.829-.415-1.353-1.263-1.353-2.19 0-.067 0-.136 0-.206 0-1.17.823-2.154 1.929-2.393l-.012-.024zm-8.072 7.316 3.245 1.623c-.853.47-1.815.719-2.797.719-.346 0-.668-.179-.85-.474-.183-.294-.199-.662-.045-.972zm17.573-3.23v.942c0 .552.448 1 1 1s1-.448 1-1v-.942c0-.552-.448-1-1-1s-1 .448-1 1zm18 0v.942c0 .552.448 1 1 1s1-.448 1-1v-.942c0-.552-.448-1-1-1s-1 .448-1 1zm-9 0v.942c0 .552.448 1 1 1s1-.448 1-1v-.942c0-.552-.448-1-1-1s-1 .448-1 1zm-6 0v.942c0 .552.448 1 1 1s1-.448 1-1v-.942c0-.552-.448-1-1-1s-1 .448-1 1zm12 0v.942c0 .552.448 1 1 1s1-.448 1-1v-.942c0-.552-.448-1-1-1s-1 .448-1 1zm-3 0v.942c0 .552.448 1 1 1s1-.448 1-1v-.942c0-.552-.448-1-1-1s-1 .448-1 1zm-15 0v.942c0 .552.448 1 1 1s1-.448 1-1v-.942c0-.552-.448-1-1-1s-1 .448-1 1zm9 0v.942c0 .552.448 1 1 1s1-.448 1-1v-.942c0-.552-.448-1-1-1s-1 .448-1 1zm20.652-3.551c.803.224 1.578.546 2.309.96.661.375 1.382.784 1.984 1.125.753.428 1.559.755 2.397.974-.8.475-1.97 1.058-2.443 1.246-.399.159-.823.303-1.213.386-.77.162-1.565.232-2.187.002-.551-.204-.847-.692-.847-1.28zm-44.718-2.275-.829-1.662c-.154-.31-.138-.678.045-.973.182-.294.504-.473.85-.473 1.227-.001 2.422.388 3.414 1.111.002.001.003.002.005.003.788.582 1.565 1.187 2.332 1.817z"/></g></svg>