<svg id="Capa_1" enable-background="new 0 0 512 512" height="512" viewBox="0 0 512 512" width="512" xmlns="http://www.w3.org/2000/svg"><g><path style="fill: #c1c1c1;"  d="m256 341c69.596 0 134.374-39.741 166-101.536v-83.464c0-3.979 1.58-7.794 4.394-10.606l64.393-64.394h-469.574l64.394 64.394c2.813 2.812 4.393 6.627 4.393 10.606v83.464c31.626 61.795 96.404 101.536 166 101.536zm0-30c-8.284 0-15-6.716-15-15s6.716-15 15-15 15 6.716 15 15-6.716 15-15 15zm60-16.077c-8.284 0-15-6.716-15-15s6.716-15 15-15 15 6.716 15 15-6.716 15-15 15zm60-133.923c8.284 0 15 6.716 15 15s-6.716 15-15 15-15-6.716-15-15 6.716-15 15-15zm-16.077 60c8.284 0 15 6.716 15 15s-6.716 15-15 15-15-6.716-15-15 6.716-15 15-15zm-163.923-80h120c8.284 0 15 6.716 15 15s-6.716 15-15 15h-120c-8.284 0-15-6.716-15-15s6.716-15 15-15zm0 123.923c8.284 0 15 6.716 15 15s-6.716 15-15 15-15-6.716-15-15 6.716-15 15-15zm-28.923-28.923c0 8.284-6.716 15-15 15s-15-6.716-15-15 6.716-15 15-15 15 6.716 15 15zm-31.077-75c8.284 0 15 6.716 15 15s-6.716 15-15 15-15-6.716-15-15 6.716-15 15-15z"/><path style="fill: #c1c1c1;"  d="m452 162.213v80.791c0 2.282-.521 4.533-1.522 6.584-17.776 36.39-45.336 66.984-79.7 88.478-34.45 21.545-74.139 32.934-114.778 32.934s-80.328-11.389-114.777-32.936c-34.364-21.492-61.925-52.088-79.7-88.477-1.002-2.051-1.522-4.302-1.522-6.584v-80.791l-60-60v153.788c0 2.069.428 4.116 1.258 6.013l1.46 3.337c44.024 100.629 143.443 165.65 253.281 165.65s209.257-65.021 253.282-165.65l1.46-3.337c.83-1.896 1.258-3.943 1.258-6.013v-153.787z"/></g></svg>