<svg id="Capa_1" enable-background="new 0 0 512 512" height="512" viewBox="0 0 512 512" width="512" xmlns="http://www.w3.org/2000/svg"><g><g><path style="fill: #c1c1c1;"  d="m165 156.213-46.608 46.608c-8.491 8.491-8.491 22.308.001 30.8 8.491 8.491 22.309 8.49 30.8 0l5.201-5.201c5.857-5.857 15.355-5.857 21.213 0l5.201 5.201c8.492 8.492 22.309 8.492 30.801 0 8.491-8.492 8.491-22.309 0-30.8z"/><g><g><g><g><path style="fill: #c1c1c1;"  d="m270 287c0-29.946 21.843-52.545 60-64.764v-177.236c0-24.813-20.187-45-45-45h-240c-24.813 0-45 20.187-45 45v380c0 24.813 20.187 45 45 45h225.083c-.05-.993-.083-1.991-.083-3zm-190-192c0 8.284-6.716 15-15 15s-15-6.716-15-15v-30c0-8.284 6.716-15 15-15s15 6.716 15 15zm152.822 159.834c-14.267 14.265-34.849 18.44-52.822 12.547v32.619h25c8.284 0 15 6.716 15 15s-6.716 15-15 15h-80c-8.284 0-15-6.716-15-15s6.716-15 15-15h25v-32.609c-5.254 1.722-10.73 2.585-16.208 2.585-13.26 0-26.52-5.047-36.613-15.142-20.188-20.189-20.188-53.038 0-73.226l57.215-57.215c5.857-5.857 15.355-5.857 21.213 0l57.215 57.215c20.187 20.188 20.188 53.037 0 73.226z"/></g><path style="fill: #c1c1c1;"  d="m406 332c-52.762 0-106-13.914-106-45s53.238-45 106-45 106 13.914 106 45-53.238 45-106 45z"/></g></g></g></g><path style="fill: #c1c1c1;"  d="m406 362c-46.013 0-82.463-8.648-106-24.089v39.089c0 31.086 53.238 45 106 45s106-13.914 106-45v-39.089c-23.537 15.441-59.987 24.089-106 24.089z"/><path style="fill: #c1c1c1;"  d="m406 452c-46.013 0-82.463-8.648-106-24.089v39.089c0 31.086 53.238 45 106 45s106-13.914 106-45v-39.089c-23.537 15.441-59.987 24.089-106 24.089z"/></g></svg>