<svg fill="none" height="512" viewBox="0 0 128 128" width="512" xmlns="http://www.w3.org/2000/svg"><g fill="#c1c1c1"><path style="fill: #c1c1c1;"  d="m102.468 13.8579c.162-.8938-.298-1.7849-1.121-2.1696s-1.8019-.1664-2.3834.5314l-13.2378 15.8854-7.0333-11.1706c-.4597-.73-1.3355-1.083-2.1729-.8758s-1.4475.9279-1.5137 1.788l-1.5 19.5c-.0847 1.1013.7394 2.0628 1.8407 2.1475s2.0628-.7394 2.1475-1.8407l1.0361-13.4694 5.2773 8.3816c.3411.5418.921.8875 1.5598.93s1.2593-.2234 1.6691-.7152l10.137-12.1644-2.6411 14.5262c-.1255.6902.1197 1.3956.6462 1.859.5265.4635 1.2574.6173 1.926.4053l13.2285-4.1944-8.795 9.4233c-.43.4611-.618 1.0982-.506 1.719.111.6207.509 1.1524 1.074 1.4345l8.499 4.2494-11.9338 1.9889c-1.0895.1816-1.8256 1.2121-1.644 2.3016.1816 1.0896 1.2121 1.8256 2.3016 1.644l18.0002-3c.854-.1424 1.52-.8187 1.649-1.6754.129-.8566-.309-1.6988-1.084-2.0862l-11.606-5.8031 12.174-13.0435c.62-.6646.714-1.6641.229-2.4328-.486-.7687-1.429-1.1131-2.295-.8382l-17.334 5.496z"/><path style="fill: #c1c1c1;"  d="m31.2417 43.2967c.4192-.2125.8539-.2966 1.254-.2966h40.0086c.4001 0 .8348.0841 1.254.2966 2.2206 1.126 5.8127 4.2281 7.5808 9.5756.3467 1.0487-.2224 2.18-1.2711 2.5267-1.0487.3468-2.18-.2223-2.5267-1.2711-1.3326-4.0302-3.9251-6.308-5.3423-7.1278h-39.3981c-1.7331 1.0016-5.1737 4.1496-6.0027 9.9672-.0694.4867-.3085.9074-.649 1.2107 1.7874 1.8227 3.9067 2.5927 5.0502 2.767h16.5087c1.1046 0 2 .8954 2 2s-.8954 2-2 2h-16.7707l-.1239-.0155c-2.5641-.3214-7.6805-2.3526-10.2535-7.9136h-7.3973c-1.1897 0-2.1627.9682-2.1627 2.1732v.1756c0 1.0767.7829 1.9859 1.8346 2.1481l5.9559.9186c2.0912.3225 3.0955 2.734 1.8749 4.4472l-2.1357 2.9975c-.5652.7933-.8694 1.7445-.8694 2.7205v9.9626c0 2.5879 2.0912 4.6771 4.6603 4.6771h14.3875c1.1046 0 2 .8955 2 2 0 1.1046-.8954 2-2 2h-14.3875c-.8984 0-1.7646-.1369-2.579-.3911v3.8163c0 .7441.6003 1.3386 1.3302 1.3386h10.8229c.7299 0 1.3302-.6513 1.3302-1.7559s.8954-2 2-2 2 .8954 2 2c0 3.3667-2.3816 5.7558-5.3302 5.7558h-10.8229c-2.9486 0-5.3302-2.3948-5.3302-5.3385l.0089-6.449c-1.3032-1.5192-2.0902-3.495-2.0902-5.6533v-9.9626c0-1.8073.5632-3.57 1.6117-5.0415l1.0393-1.4588-4.0865-.6303c-3.00964-.4642-5.2248-3.0584-5.2248-6.1013v-.1756c0-3.4046 2.75436-6.1732 6.1627-6.1732h8.1526c.8098 0 1.5276.3383 2.041.867 1.6265-5.9781 5.5425-9.3982 7.8854-10.5862z"/><path style="fill: #c1c1c1;"  d="m20.5682 68.9685c.822-.7378 2.0865-.6697 2.8244.1522l3.1504 3.5093h3.2656c1.1046 0 2 .8955 2 2 0 1.1046-.8954 2-2 2h-3.7871c-.8048 0-1.5705-.3425-2.1071-.9402l-3.4984-3.8969c-.7378-.822-.6697-2.0865.1522-2.8244z"/><path style="fill: #c1c1c1;"  d="m46.5682 85.9685c.822-.7378 2.0865-.6697 2.8244.1522l3.1504 3.5093h8.2656c1.1046 0 2 .8955 2 2 0 1.1046-.8954 2-2 2h-8.7871c-.8048 0-1.5705-.3425-2.1071-.9402l-3.4984-3.8969c-.7378-.822-.6697-2.0865.1522-2.8244z"/><path style="fill: #c1c1c1;"  d="m110.432 85.9685c.822.7379.89 2.0024.152 2.8244l-3.498 3.8969c-.537.5977-1.303.9402-2.107.9402h-8.7876c-1.1046 0-2-.8954-2-2 0-1.1045.8954-2 2-2h8.2656l3.15-3.5093c.738-.8219 2.003-.89 2.825-.1522z"/><path style="fill: #c1c1c1;"  d="m59.6412 99.1418c0-1.1045.8954-2 2-2h33.7177c1.1045 0 2 .8955 2 2 0 1.1042-.8955 2.0002-2 2.0002h-33.7177c-1.1046 0-2-.896-2-2.0002z"/><path style="fill: #c1c1c1;"  clip-rule="evenodd" d="m57.2417 60.2967c.4192-.2125.8539-.2966 1.254-.2966h40.0086c.4001 0 .8348.0841 1.254.2966 2.3427 1.188 6.2587 4.6081 7.8857 10.5862.513-.5287 1.231-.867 2.041-.867h8.152c3.409 0 6.163 2.7686 6.163 6.1732v.1756c0 3.0429-2.215 5.6371-5.225 6.1013l-4.086.6303 1.039 1.4588c1.048 1.4715 1.612 3.2342 1.612 5.0415v9.9626c0 2.1578-.787 4.1338-2.09 5.6528l.008 6.45c0 2.943-2.381 5.338-5.33 5.338h-10.8227c-2.9486 0-5.3302-2.5-5.3302-5.756 0-1.104.8954-2 2-2s2 .896 2 2c0 1.105.6003 1.756 1.3302 1.756h10.8227c.73 0 1.33-.594 1.33-1.338v-3.817c-.814.254-1.68.391-2.579.391h-60.3584c-.8984 0-1.7646-.137-2.579-.391v3.817c0 .744.6003 1.338 1.3302 1.338h10.8229c.7299 0 1.3302-.651 1.3302-1.756 0-1.104.8954-2 2-2s2 .896 2 2c0 3.756-2.3816 5.756-5.3302 5.756h-10.8229c-2.9486 0-5.3302-2.395-5.3302-5.338l.0089-6.45c-1.3032-1.519-2.0902-3.495-2.0902-5.6528v-9.9626c0-1.8073.5632-3.57 1.6117-5.0415l1.0393-1.4588-4.0865-.6303c-3.0096-.4642-5.2248-3.0584-5.2248-6.1013v-.1756c0-3.4046 2.7544-6.1732 6.1627-6.1732h8.1526c.8098 0 1.5276.3383 2.041.867 1.6265-5.9781 5.5425-9.3982 7.8854-10.5862zm-5.0925 14.8813c1.7874 1.8227 3.9067 2.5927 5.0502 2.767h42.6012c1.1434-.1743 3.2624-.9443 5.0504-2.767-.341-.3033-.58-.724-.649-1.2107-.829-5.8176-4.2698-8.9656-6.0029-9.9672h-39.3982c-1.7331 1.0016-5.1737 4.1496-6.0027 9.9672-.0694.4867-.3085.9074-.649 1.2107zm-12.9865-1.1621c-1.1897 0-2.1627.9682-2.1627 2.1732v.1756c0 1.0767.7829 1.9859 1.8346 2.1481l5.9559.9186c2.0912.3225 3.0955 2.734 1.8749 4.4472l-2.1357 2.9975c-.5652.7933-.8694 1.7445-.8694 2.7205v9.9626c0 2.5878 2.0912 4.6768 4.6603 4.6768h60.3584c2.569 0 4.661-2.089 4.661-4.6768v-9.9626c0-.976-.305-1.9272-.87-2.7205l-2.135-2.9975c-1.221-1.7132-.217-4.1247 1.874-4.4472l5.956-.9186c1.052-.1622 1.835-1.0714 1.835-2.1481v-.1756c0-1.205-.973-2.1732-2.163-2.1732h-7.397c-2.573 5.561-7.689 7.5922-10.254 7.9136l-.123.0155h-43.1256l-.1239-.0155c-2.5641-.3214-7.6805-2.3526-10.2535-7.9136z" fill-rule="evenodd"/></g></svg>