<?xml version="1.0" encoding="UTF-8"?>
<svg xmlns="http://www.w3.org/2000/svg" id="Icons" viewBox="0 0 60 60" width="512" height="512"><rect  style="fill: #c1c1c1;"  x="11" y="20" width="4" height="20" rx="1"/><path style="fill: #c1c1c1;"  d="M26,46a2,2,0,0,0-2,2v1h4V48A2,2,0,0,0,26,46Z"/><path style="fill: #c1c1c1;"  d="M30,40H43a2,2,0,0,0,0-4H41a1,1,0,0,1,0-2h4a2,2,0,0,0,0-4H41a1,1,0,0,1,0-2h6a2,2,0,0,0,0-4H41a1,1,0,0,1,0-2h4a2,2,0,0,0,0-4l-8-.01a1.991,1.991,0,0,1-1.68-3.071A19.435,19.435,0,0,0,38,3.888a2,2,0,0,0-3.24-1.453,1.982,1.982,0,0,0-.748,1.339,12.816,12.816,0,0,1-1.689,5,7.47,7.47,0,0,1-3.858,3.442,15.654,15.654,0,0,0-4.4,2.981,17.485,17.485,0,0,0-2.543,2.89A9.378,9.378,0,0,1,17,21.091V36.918a11.477,11.477,0,0,1,2.555,1.25C22.3,40,23.031,40,30,40Z"/><path style="fill: #c1c1c1;"  d="M56,42H4a2,2,0,0,0-2,2V56a2,2,0,0,0,2,2H56a2,2,0,0,0,2-2V44A2,2,0,0,0,56,42ZM17,49a1,1,0,0,1,0,2H14v3h5a1,1,0,0,1,0,2H13a1,1,0,0,1-1-1V45a1,1,0,0,1,1-1h6a1,1,0,0,1,0,2H14v3Zm13,6a1,1,0,0,1-2,0V51H24v4a1,1,0,0,1-2,0V48a4,4,0,0,1,8,0Zm5.5,1a3.541,3.541,0,0,1-3.48-2.8,1,1,0,1,1,1.96-.4A1.555,1.555,0,0,0,35.5,54a1.5,1.5,0,0,0,0-3,3.5,3.5,0,1,1,3.481-4.193,1,1,0,0,1-1.962.386A1.544,1.544,0,0,0,35.5,46a1.5,1.5,0,0,0,0,3,3.5,3.5,0,0,1,0,7ZM47.857,45.515,45,50.277V55a1,1,0,0,1-2,0V50.277l-2.857-4.762a1,1,0,0,1,1.714-1.03L44,48.056l2.143-3.571a1,1,0,1,1,1.714,1.03Z"/></svg>
