<svg enable-background="new 0 0 64 64" height="512" viewBox="0 0 64 64" width="512" xmlns="http://www.w3.org/2000/svg"><g id="Layer_21"><path d="m58.78 37.64c1.45-1.54 3.1-3.29 3.1-5.64s-1.65-4.1-3.1-5.64c-.82-.88-1.68-1.78-1.91-2.5-.25-.78-.09-2.07.07-3.31.26-2.07.56-4.41-.76-6.24-1.34-1.85-3.66-2.29-5.71-2.68-1.21-.23-2.46-.47-3.09-.93-.62-.46-1.22-1.57-1.81-2.65-1-1.86-2.14-3.96-4.33-4.68-2.12-.69-4.22.31-6.08 1.19-1.14.54-2.32 1.1-3.15 1.1s-2.02-.56-3.15-1.1c-1.86-.88-3.97-1.89-6.08-1.19-2.19.72-3.33 2.82-4.33 4.68-.58 1.08-1.18 2.19-1.81 2.65-.64.47-1.88.7-3.09.93-2.05.39-4.37.83-5.71 2.68-1.32 1.83-1.02 4.17-.76 6.24.16 1.24.32 2.53.07 3.31-.23.71-1.08 1.62-1.91 2.5-1.45 1.54-3.1 3.29-3.1 5.64s1.65 4.1 3.1 5.64c.82.88 1.68 1.78 1.91 2.5.25.78.09 2.07-.07 3.31-.26 2.07-.56 4.41.76 6.24 1.34 1.85 3.66 2.29 5.71 2.68 1.21.23 2.46.47 3.09.93.62.46 1.22 1.57 1.81 2.65 1 1.86 2.14 3.96 4.33 4.68 2.12.69 4.22-.31 6.08-1.19 1.14-.54 2.32-1.1 3.15-1.1s2.02.56 3.15 1.1c1.42.68 3 1.43 4.6 1.43.49 0 .98-.07 1.48-.23 2.19-.72 3.33-2.82 4.33-4.68.58-1.08 1.18-2.19 1.81-2.65.64-.47 1.88-.7 3.09-.93 2.05-.39 4.37-.83 5.71-2.68 1.32-1.83 1.02-4.17.76-6.24-.16-1.24-.32-2.53-.07-3.31.23-.72 1.08-1.63 1.91-2.51zm-34.28-.64c0 .9-.6 1.69-1.47 1.93-.18.05-.36.07-.53.07-.69 0-1.35-.36-1.71-.97l-2.29-3.82v2.79c0 1.1-.9 2-2 2s-2-.9-2-2v-10c0-.9.6-1.69 1.47-1.93.86-.24 1.79.13 2.25.9l2.29 3.82v-2.79c0-1.1.9-2 2-2s2 .9 2 2v10zm7.5-7c1.1 0 2 .9 2 2s-.9 2-2 2h-1.5v1h4.01c1.1 0 2 .9 2 2s-.9 2-2 2h-6.01c-1.1 0-2-.9-2-2v-10c0-1.1.9-2 2-2h6.01c1.1 0 2 .9 2 2s-.9 2-2 2h-4.01v1zm17.51 7c0 .86-.55 1.62-1.36 1.89-.21.08-.42.11-.64.11-.61 0-1.2-.28-1.59-.79l-2.42-3.17-2.41 3.17c-.52.68-1.42.95-2.23.68s-1.36-1.04-1.36-1.9v-9.99c0-1.1.9-2 2-2s2 .9 2 2v4.08l.41-.54c.76-.99 2.42-.99 3.18 0l.42.54v-4.08c0-1.1.9-2 2-2s2 .9 2 2z" fill="#c1c1c1"/></g></svg>