<svg id="Capa_1" enable-background="new 0 0 591.599 591.599" height="512" viewBox="0 0 591.599 591.599" width="512" xmlns="http://www.w3.org/2000/svg"><g><g id="_63_Casino_Chip"><path  style="fill: #c1c1c1;"  d="m203.263 347.044h185.074c0 19.577-15.87 35.447-35.447 35.447h-114.18c-19.577 0-35.447-15.87-35.447-35.447z"/><path  style="fill: #c1c1c1;"  d="m421.501 217.985c-10.828 0-19.607 8.774-19.614 19.602 0 4.831 4.662 12.693 4.662 12.681l-47.549 43.237-52.984-48.165c9.193-5.742 11.99-17.85 6.248-27.043s-17.85-11.99-27.043-6.248-11.99 17.85-6.248 27.043c1.454 2.328 3.38 4.325 5.654 5.862l-52.416 48.551-48.201-43.829s5.701-8.454 5.701-13.817c-.013-10.819-8.793-19.579-19.612-19.567-10.819.013-19.579 8.793-19.567 19.612.013 10.819 8.793 19.579 19.612 19.567 1.92-.002 3.829-.287 5.666-.844l13.406 38.877 14.71 42.669h185.086l13.974-42.669s12.077-37.44 11.981-37.44c10.212 3.593 21.403-1.773 24.996-11.985s-1.773-21.403-11.985-24.996c-2.081-.732-4.271-1.108-6.478-1.111z"/><path  style="fill: #c1c1c1;"  d="m84.578 288.553c1.717-51.023 21.911-99.686 56.824-136.933l-.109-.097-59.783-59.783c-50.749 53.153-79.818 123.343-81.51 196.813h84.542z"/><path  style="fill: #c1c1c1;"  d="m151.632 141.402c37.245-34.91 85.902-55.104 136.921-56.824-.007-.044-.007-.089 0-.133v-84.445c-73.461 1.692-143.641 30.757-196.789 81.498l59.771 59.795z"/><path  style="fill: #c1c1c1;"  d="m439.979 450.185c-37.246 34.918-85.908 55.117-136.933 56.836.007.044.007.089 0 .133v84.445c73.488-1.674 143.699-30.745 196.861-81.51l-59.783-59.795z"/><path  style="fill: #c1c1c1;"  d="m288.553 507.021c-51.029-1.717-99.697-21.915-136.946-56.836l-.085.109-59.782 59.795c53.162 50.765 123.373 79.836 196.862 81.51v-84.445c-.024-.042-.04-.086-.049-.133z"/><path  style="fill: #c1c1c1;"  d="m141.402 439.967c-34.91-37.245-55.104-85.902-56.824-136.921h-84.542c1.665 73.483 30.722 143.694 81.474 196.861l59.783-59.795c.024-.056.062-.106.109-.145z"/><path  style="fill: #c1c1c1;"  d="m507.021 303.046c-1.717 51.023-21.911 99.686-56.824 136.933.041.021.078.05.109.085l59.783 59.843c50.765-53.162 79.836-123.373 81.51-196.861h-84.542z"/><path  style="fill: #c1c1c1;"  d="m450.197 151.632c34.91 37.245 55.104 85.902 56.824 136.921h84.542c-1.685-73.461-30.741-143.646-81.474-196.801l-59.783 59.783z"/><path  style="fill: #c1c1c1;"  d="m303.046 84.578c51.023 1.717 99.686 21.911 136.933 56.824l.097-.109 59.771-59.795c-53.151-50.744-123.336-79.809-196.801-81.498v84.445c.007.044.007.089 0 .133z"/></g></g></svg>