<?xml version="1.0" encoding="UTF-8"?>
<!-- Generator: Adobe Illustrator 26.0.1, SVG Export Plug-In . SVG Version: 6.00 Build 0)  -->
<svg xmlns="http://www.w3.org/2000/svg" xmlns:xlink="http://www.w3.org/1999/xlink" version="1.1" id="Capa_1" x="0px" y="0px" viewBox="0 0 512 512" style="enable-background:new 0 0 512 512;" xml:space="preserve" width="512" height="512">
<g>
	<g>
		<path  style="fill: #c1c1c1;"  d="M71.777,386.995c49.071,17.993,114.496,27.902,184.223,27.902s135.151-9.909,184.223-27.902    c43.203-15.841,68.94-36.418,71.543-56.938c-14.066,14.453-36.169,27.463-65.465,38.204    C395.332,386.95,327.748,397.241,256,397.241S116.668,386.95,65.7,368.26c-29.297-10.742-51.399-23.751-65.465-38.204    C2.838,350.577,28.575,371.154,71.777,386.995z"/>
		<path  style="fill: #c1c1c1;"  d="M247.172,309.81l-94.482,62.031c29.536,4.66,61.461,7.287,94.482,7.684V309.81z"/>
		<path  style="fill: #c1c1c1;"  d="M390.884,365.884c17.747-3.941,34.313-8.689,49.339-14.199c33.177-12.164,56.05-27.124,66.063-42.703    c-1.92-2.974-4.309-5.928-7.151-8.842h-93.09c5.555,7.382,8.852,16.554,8.852,26.483    C414.897,343.711,405.127,358.552,390.884,365.884z"/>
		<path  style="fill: #c1c1c1;"  d="M264.828,379.527c35.892-0.433,70.494-3.495,102.136-8.942c-12.747-1.091-23.962-7.617-31.311-17.252l-70.825-43.801    V379.527z"/>
		<path  style="fill: #c1c1c1;"  d="M327.176,300.138c-10.119,2.889-21.447,5.079-33.373,6.554l32.828,20.302c-0.001-0.126-0.01-0.249-0.01-0.374    c0-9.929,3.297-19.101,8.852-26.483H327.176z"/>
		<path  style="fill: #c1c1c1;"  d="M388.414,141.241c0-3.022,0.307-5.974,0.888-8.828h-71.509v17.655h71.509    C388.721,147.215,388.414,144.264,388.414,141.241z"/>
		<circle cx="432.552" cy="141.241" r="26.483"/>
		<path  style="fill: #c1c1c1;"  d="M5.714,308.98c10.014,15.581,32.886,30.539,66.063,42.703c16.815,6.166,35.552,11.382,55.724,15.575l92.007-60.407    c-12.406-1.475-24.192-3.719-34.681-6.713H12.864C10.022,303.054,7.633,306.006,5.714,308.98z"/>
		<path  style="fill: #c1c1c1;"  d="M511.775,287.822c-2.263-17.684-21.635-35.409-55.127-50.266c-35.599-15.793-84.618-26.998-138.854-31.825v17.592    c49.334,4.264,94.21,13.543,130.206,26.978C476.331,260.877,497.943,273.638,511.775,287.822z"/>
		<path  style="fill: #c1c1c1;"  d="M150.044,246.539c-29.689,4.826-56.745,11.673-79.869,20.303c-12.836,4.791-24.168,10.057-33.779,15.641h113.173    c-5.315-5.156-8.328-11.046-8.328-17.656C141.241,258.138,144.245,251.997,150.044,246.539z"/>
		<circle cx="79.448" cy="141.241" r="26.483"/>
		<path  style="fill: #c1c1c1;"  d="M194.207,150.069v-17.655h-71.509c0.582,2.854,0.888,5.805,0.888,8.828s-0.307,5.974-0.888,8.828H194.207z"/>
		<path  style="fill: #c1c1c1;"  d="M361.956,246.539c5.799,5.458,8.802,11.599,8.802,18.289c0,6.61-3.011,12.499-8.327,17.655h113.171    c-9.611-5.583-20.941-10.849-33.778-15.64C418.701,258.212,391.647,251.364,361.956,246.539z"/>
		<path  style="fill: #c1c1c1;"  d="M194.207,223.325v-17.592c-54.236,4.826-103.254,16.032-138.854,31.825C21.86,252.415,2.488,270.138,0.225,287.823    c13.832-14.184,35.444-26.945,63.776-37.519C99.997,236.867,144.873,227.587,194.207,223.325z"/>
		<path  style="fill: #c1c1c1;"  d="M194.207,245.244c-24.259,6.154-35.31,14.795-35.31,19.584c0,8.989,34.274,26.483,97.103,26.483    s97.103-17.494,97.103-26.483c0-4.789-11.051-13.43-35.31-19.584v1.929c0,18.294-31.036,26.483-61.793,26.483    s-61.793-8.189-61.793-26.483V245.244z"/>
		<path  style="fill: #c1c1c1;"  d="M446.3,403.571c-50.967,18.689-118.551,28.981-190.3,28.981S116.668,422.26,65.7,403.571    c-29.46-10.802-51.646-23.895-65.7-38.446v23.289c0,21.643,26.162,43.649,71.777,60.374    C120.849,466.781,186.273,476.69,256,476.69s135.151-9.909,184.223-27.902C485.838,432.063,512,410.057,512,388.414v-23.289    C497.945,379.676,475.759,392.769,446.3,403.571z"/>
		<circle cx="370.759" cy="326.621" r="26.483"/>
		<path  style="fill: #c1c1c1;"  d="M256,256c26.389,0,41.54-6.509,44.138-9.576V108.015c0-8.81-4.896-16.73-12.776-20.671l-4.879-2.441V65.609    c-7.281,3.174-16.381,5.012-26.483,5.012c-10.102,0-19.202-1.838-26.483-5.012v19.295l-4.879,2.44    c-7.88,3.942-12.776,11.861-12.776,20.672v138.41C214.46,249.491,229.611,256,256,256z M256,123.586    c9.751,0,17.655,7.904,17.655,17.655s-7.904,17.655-17.655,17.655c-9.751,0-17.655-7.904-17.655-17.655    S246.249,123.586,256,123.586z"/>
		<ellipse cx="256" cy="44.138" rx="26.483" ry="8.828"/>
	</g>
</g>















</svg>
