<svg height="512" viewBox="0 0 48 48" width="512" xmlns="http://www.w3.org/2000/svg"><g id="Layer_2" data-name="Layer 2"><path style="fill: #c1c1c1;"  d="m35 14h-26a3.009 3.009 0 0 0 -3 3v12.13a3.657 3.657 0 0 1 1-.13h30a3.657 3.657 0 0 1 1 .13v-12.13a3.009 3.009 0 0 0 -3-3zm-20.16 4.55a18.167 18.167 0 0 0 -1.9 3.79 18.549 18.549 0 0 0 -.95 3.8 1 1 0 0 1 -.99.86.708.708 0 0 1 -.14-.01 1 1 0 0 1 -.85-1.13 20.83 20.83 0 0 1 1.05-4.2 20.377 20.377 0 0 1 1.19-2.66h-2.25a1 1 0 0 1 0-2h4a1.006 1.006 0 0 1 .88.52 1.025 1.025 0 0 1 -.04 1.03zm10 0a18.167 18.167 0 0 0 -1.9 3.79 18.549 18.549 0 0 0 -.95 3.8 1 1 0 0 1 -.99.86.708.708 0 0 1 -.14-.01 1 1 0 0 1 -.85-1.13 20.83 20.83 0 0 1 1.05-4.2 20.377 20.377 0 0 1 1.19-2.66h-2.25a1 1 0 0 1 0-2h4a1.006 1.006 0 0 1 .88.52 1.025 1.025 0 0 1 -.04 1.03zm10 0a18.167 18.167 0 0 0 -1.9 3.79 18.549 18.549 0 0 0 -.95 3.8 1 1 0 0 1 -.99.86.708.708 0 0 1 -.14-.01 1 1 0 0 1 -.85-1.13 20.83 20.83 0 0 1 1.05-4.2 20.377 20.377 0 0 1 1.19-2.66h-2.25a1 1 0 0 1 0-2h4a1.006 1.006 0 0 1 .88.52 1.025 1.025 0 0 1 -.04 1.03z"/><path style="fill: #c1c1c1;"  d="m29.94 8.15-1.74 4.85h-12.44l-1.7-4.52a1.03 1.03 0 0 1 .28-1.11 1 1 0 0 1 1.13-.12l3.19 1.71 2.47-4.45a1 1 0 0 1 1.77.05l2.11 4.36 3.5-1.98a1 1 0 0 1 1.43 1.21z"/><rect style="fill: #c1c1c1;"  height="6" rx="1" width="6" x="38" y="34"/><path style="fill: #c1c1c1;"  d="m41 7a3 3 0 0 0 -3 3v2a3 3 0 0 0 6 0v-2a3 3 0 0 0 -3-3z"/><path style="fill: #c1c1c1;"  d="m41 36a1 1 0 0 1 -1-1v-21a1 1 0 0 1 2 0v21a1 1 0 0 1 -1 1z"/><path style="fill: #c1c1c1;"  d="m32 36h-20a1 1 0 0 0 0 2h20a1 1 0 0 0 0-2z"/><path style="fill: #c1c1c1;"  d="m37 30h-30a3 3 0 0 0 -3 3v8a3 3 0 0 0 3 3h30a3 3 0 0 0 3-3v-8a3 3 0 0 0 -3-3zm-5 10h-20a3 3 0 0 1 0-6h20a3 3 0 0 1 0 6z"/></g></svg>