<svg id="Capa_1" enable-background="new 0 0 512 512" height="512" viewBox="0 0 512 512" width="512" xmlns="http://www.w3.org/2000/svg"><g><path style="fill: #c1c1c1;"  d="m238.518 87-46.535-48.72c-5.534-5.796-12.995-9.089-21.007-9.272-8.029-.19-15.615 2.764-21.409 8.299l-140.287 133.997c-5.795 5.535-9.088 12.995-9.271 21.007s2.764 15.615 8.299 21.408l90.692 94.951v-161.67c0-33.084 26.916-60 60-60z"/><path style="fill: #c1c1c1;"  d="m489.371 90.458-188.047-47.685c-7.768-1.973-15.838-.798-22.724 3.302s-11.762 10.636-13.731 18.402l-5.711 22.523h93.842c33.084 0 60 26.916 60 60v298.506c3.176-.676 6.255-1.87 9.127-3.58 6.885-4.1 11.762-10.635 13.732-18.402l75.217-296.612c4.066-16.035-5.671-32.388-21.705-36.454z"/><path style="fill: #c1c1c1;"  d="m353 117h-194c-16.542 0-30 13.458-30 30v306c0 16.542 13.458 30 30 30h194c16.542 0 30-13.458 30-30v-306c0-16.542-13.458-30-30-30zm-153 56.001c8.284 0 15 6.716 15 15s-6.716 15-15 15-15-6.716-15-15 6.716-15 15-15zm56 197.999c-3.577 0-7.153-1.273-10.001-3.82l-44.729-40.012c-.101-.09-.199-.181-.298-.273-11.223-10.598-16.621-26.625-14.442-42.872 2.072-15.453 10.873-28.715 23.544-35.477 6.155-3.277 12.656-4.936 19.335-4.936 10.132 0 19.393 3.86 26.591 10.327 7.198-6.467 16.459-10.327 26.591-10.327 6.679 0 13.18 1.658 19.323 4.93 12.683 6.768 21.483 20.029 23.556 35.482 2.179 16.247-3.22 32.274-14.442 42.872-.099.093-.197.184-.298.273l-44.729 40.012c-2.847 2.548-6.424 3.821-10.001 3.821zm56 55.998c-8.284 0-15-6.715-15-15 0-8.284 6.716-15 15-15s15 6.716 15 15-6.716 15-15 15z"/></g></svg>