<svg id="Capa_1" enable-background="new 0 0 591.599 591.599" height="512" viewBox="0 0 591.599 591.599" width="512" xmlns="http://www.w3.org/2000/svg"><g><g id="_76_Chip"><path  style="fill: #c1c1c1;"  d="m383.324 268.468-12.874-12.826-63.213-63.02c-6.338-6.333-16.609-6.333-22.947 0l-63.056 62.863-12.947 12.911c-20.532 20.634-20.449 54.005.185 74.537 17.422 17.335 44.512 20.329 65.298 7.215l-7.162 38.648c-1.274 6.839 3.238 13.417 10.077 14.69.763.142 1.538.213 2.314.213h33.599c6.957.004 12.6-5.632 12.604-12.589 0-.776-.071-1.551-.213-2.314l-7.246-38.865c20.845 13.207 48.056 10.224 65.544-7.186 20.521-20.419 20.604-53.606.185-74.127-.048-.05-.098-.1-.148-.15z"/><path  style="fill: #c1c1c1;"  d="m84.578 288.553c1.717-51.023 21.911-99.686 56.824-136.933l-.109-.097-59.783-59.783c-50.749 53.153-79.818 123.343-81.51 196.813h84.542z"/><path  style="fill: #c1c1c1;"  d="m151.632 141.402c37.245-34.91 85.902-55.104 136.921-56.824-.007-.044-.007-.089 0-.133v-84.445c-73.461 1.692-143.641 30.757-196.789 81.498l59.771 59.795z"/><path  style="fill: #c1c1c1;"  d="m439.979 450.185c-37.246 34.918-85.908 55.117-136.933 56.836.007.044.007.089 0 .133v84.445c73.488-1.674 143.699-30.745 196.861-81.51l-59.783-59.795z"/><path  style="fill: #c1c1c1;"  d="m288.553 507.021c-51.029-1.717-99.697-21.915-136.946-56.836l-.085.109-59.782 59.795c53.162 50.765 123.373 79.836 196.862 81.51v-84.445c-.024-.042-.04-.086-.049-.133z"/><path  style="fill: #c1c1c1;"  d="m141.402 439.967c-34.91-37.245-55.104-85.902-56.824-136.921h-84.542c1.665 73.483 30.722 143.694 81.474 196.861l59.783-59.795c.024-.056.062-.106.109-.145z"/><path  style="fill: #c1c1c1;"  d="m507.021 303.046c-1.717 51.023-21.911 99.686-56.824 136.933.041.021.078.05.109.085l59.783 59.843c50.765-53.162 79.836-123.373 81.51-196.861h-84.542z"/><path  style="fill: #c1c1c1;"  d="m450.197 151.632c34.91 37.245 55.104 85.902 56.824 136.921h84.542c-1.685-73.461-30.741-143.646-81.474-196.801l-59.783 59.783z"/><path  style="fill: #c1c1c1;"  d="m303.046 84.578c51.023 1.717 99.686 21.911 136.933 56.824l.097-.109 59.771-59.795c-53.151-50.744-123.336-79.809-196.801-81.498v84.445c.007.044.007.089 0 .133z"/></g></g></svg>