<svg enable-background="new 0 0 32 32" viewBox="0 0 32 32" xmlns="http://www.w3.org/2000/svg"><g id="Grid" display="none"/><g id="Money"/><g id="Receipt"/><g id="Search"/><g id="Chart"/><g id="Briefcase"/><g id="Coin"/><g id="Tax"/><g id="Vision"/><g id="Contract"/><g id="Book"/><g id="Financial"/><g id="Payment_day"/><g id="Report"/><g id="Loss"/><g id="Profit"/><g id="Money_Bag"/><g id="Target"/><g id="Gold"/><g id="Safety_Box"/><g id="Wallet"><path  style="fill:#ebb327" d="m30 12.1v5.13c0 .53-.42.95-.95.95h-4.17c-1.78 0-3.21-1.43-3.21-3.21v-.61c0-1.78 1.43-3.21 3.21-3.21h4.17c.53 0 .95.42.95.95z"/><path  style="fill:#ebb327" d="m12.67 18.78c0 .738-1 1.385-2.506 1.741-.819.201-1.791.317-2.832.317-1.034 0-2.006-.116-2.825-.317-1.507-.356-2.507-1.003-2.507-1.741 0-1.139 2.388-2.065 5.332-2.065 2.95.001 5.338.926 5.338 2.065z"/><path  style="fill:#ebb327" d="m10.51 21.981c-.954.232-2.057.357-3.179.357-1.116 0-2.217-.125-3.182-.36-.936-.221-1.628-.52-2.149-.848v1.138c0 .738.993 1.379 2.492 1.741.819.207 1.798.324 2.839.324 1.048 0 2.02-.117 2.846-.324 1.5-.362 2.492-1.003 2.492-1.741v-1.14c-.522.33-1.218.63-2.159.853z"/><path  style="fill:#ebb327" d="m10.53 25.468c-.949.238-2.06.365-3.199.365-1.143 0-2.251-.128-3.206-.369-.92-.222-1.607-.514-2.125-.837v1.13c0 .738.993 1.379 2.492 1.747.819.201 1.798.317 2.839.317 1.048 0 2.02-.117 2.846-.317 1.5-.369 2.492-1.01 2.492-1.747v-1.131c-.52.324-1.211.618-2.139.842z"/><path  style="fill:#ebb327" d="m24.88 9.65h3.91v-1.88c0-1.98-1.61-3.59-3.59-3.59h-17.55c-1.98 0-3.59 1.61-3.59 3.59v7.824c1.01-.253 2.141-.378 3.271-.378 3.236 0 6.523.979 6.839 3.191v3.52.342 2.891h11.03c1.98 0 3.59-1.61 3.59-3.59v-1.89h-3.91c-2.597 0-4.71-2.113-4.71-4.71v-.61c0-2.596 2.113-4.71 4.71-4.71zm-10.786.114h-5.157c-.497 0-.9-.403-.9-.9s.403-.9.9-.9h5.156c.497 0 .9.403.9.9s-.402.9-.899.9z"/></g><g id="Investment"/><g id="Pie_Chart"/><g id="Home"/><g id="Assets"/><g id="Computer"/></svg>