<svg id="outline" height="512" viewBox="0 0 512 512" width="512" xmlns="http://www.w3.org/2000/svg"><g><path style="fill: #c1c1c1;"  d="m472 232h-33.565c-4.293-32.81-17.267-62.922-36.528-87.964l23.8-23.8c9.357-9.358 9.357-24.585 0-33.943-9.359-9.359-24.585-9.357-33.944 0l-23.799 23.799c-25.042-19.26-55.154-32.234-87.964-36.527v-33.565c0-13.234-10.767-24-24-24s-24 10.766-24 24v33.565c-32.81 4.293-62.922 17.267-87.963 36.528l-23.799-23.799c-9.358-9.357-24.584-9.359-33.944 0-9.357 9.358-9.357 24.585 0 33.943l23.8 23.8c-19.262 25.041-32.236 55.153-36.529 87.963h-33.565c-13.233 0-24 10.766-24 24s10.767 24 24 24h33.565c4.293 32.81 17.267 62.922 36.528 87.964l-23.8 23.8c-9.357 9.358-9.357 24.585.005 33.948 4.678 4.671 10.82 7.005 16.966 7.005s12.293-2.337 16.974-7.01l23.799-23.799c25.041 19.261 55.154 32.235 87.963 36.528v33.564c0 13.234 10.767 24 24 24s24-10.766 24-24v-33.565c32.81-4.293 62.922-17.267 87.964-36.528l23.804 23.804c4.678 4.671 10.82 7.006 16.966 7.005s12.293-2.337 16.974-7.01c9.357-9.358 9.357-24.585 0-33.943l-23.8-23.8c19.261-25.041 32.235-55.154 36.528-87.964h33.564c13.233 0 24-10.766 24-24s-10.767-23.999-24-23.999zm-68.923-134.393c3.12-3.121 8.197-3.12 11.315 0 3.12 3.12 3.12 8.196 0 11.316l-22.815 22.816c-3.608-3.933-7.383-7.708-11.316-11.316zm-155.077-57.607c0-4.411 3.589-8 8-8s8 3.589 8 8v32.184c-2.654-.114-5.319-.184-8-.184s-5.346.07-8 .184zm-150.393 68.923c-3.12-3.12-3.12-8.196 0-11.316 3.119-3.119 8.196-3.121 11.315 0l22.816 22.816c-3.933 3.607-7.708 7.383-11.316 11.316zm-57.607 155.077c-4.411 0-8-3.589-8-8s3.589-8 8-8h32.185c-.115 2.654-.185 5.319-.185 8s.07 5.346.185 8zm68.928 150.389c-3.122 3.118-8.204 3.117-11.32.004-3.12-3.12-3.12-8.196 0-11.316l22.815-22.816c3.608 3.933 7.383 7.708 11.316 11.316zm155.072 57.611c0 4.411-3.589 8-8 8s-8-3.589-8-8v-32.184c2.654.114 5.319.184 8 .184s5.346-.07 8-.184zm150.393-68.923c3.12 3.12 3.12 8.196.005 11.312-3.121 3.118-8.203 3.117-11.32.004l-22.816-22.816c3.933-3.607 7.708-7.383 11.316-11.316zm-158.393 20.923c-92.636 0-168-75.364-168-168s75.364-168 168-168 168 75.364 168 168-75.364 168-168 168zm216-160h-32.185c.114-2.654.185-5.319.185-8s-.07-5.346-.185-8h32.185c4.411 0 8 3.589 8 8s-3.589 8-8 8z"/><path style="fill: #c1c1c1;"  d="m256 128c-70.579 0-128 57.42-128 128s57.421 128 128 128 128-57.42 128-128-57.421-128-128-128zm84.615 201.301-34.088-34.088c6.885-8.851 11.494-19.546 12.956-31.213h48.229c-1.765 24.874-11.683 47.531-27.097 65.301zm-196.326-65.301h48.229c1.462 11.666 6.071 22.361 12.956 31.213l-34.088 34.088c-15.415-17.77-25.333-40.427-27.097-65.301zm27.096-81.301 34.088 34.088c-6.885 8.851-11.494 19.546-12.956 31.213h-48.229c1.765-24.874 11.683-47.531 27.097-65.301zm84.615 121.301c-26.468 0-48-21.533-48-48s21.532-48 48-48 48 21.533 48 48-21.532 48-48 48zm39.212-98.527c-8.851-6.885-19.546-11.493-31.212-12.956v-48.229c24.874 1.764 47.531 11.682 65.301 27.096zm-47.212-12.955c-11.666 1.462-22.361 6.071-31.212 12.956l-34.088-34.089c17.77-15.414 40.427-25.332 65.301-27.096v48.229zm-31.212 114.009c8.851 6.885 19.546 11.493 31.212 12.956v48.229c-24.874-1.764-47.531-11.682-65.301-27.096zm47.212 12.955c11.666-1.462 22.361-6.071 31.212-12.956l34.088 34.089c-17.77 15.414-40.427 25.332-65.301 27.096v-48.229zm55.482-71.482c-1.462-11.666-6.071-22.361-12.956-31.213l34.088-34.088c15.415 17.77 25.333 40.427 27.097 65.301z"/><path style="fill: #c1c1c1;"  d="m256 224c-17.645 0-32 14.355-32 32s14.355 32 32 32 32-14.355 32-32-14.355-32-32-32zm0 48c-8.822 0-16-7.178-16-16s7.178-16 16-16 16 7.178 16 16-7.178 16-16 16z"/><path style="fill: #c1c1c1;"  d="m256.02 112c4.419 0 8-3.582 8-8s-3.581-8-8-8h-.01c-4.418 0-7.995 3.582-7.995 8s3.587 8 8.005 8z"/><path style="fill: #c1c1c1;"  d="m256.02 400h-.01c-4.418 0-7.995 3.582-7.995 8s3.587 8 8.005 8c4.419 0 8-3.582 8-8s-3.582-8-8-8z"/><path style="fill: #c1c1c1;"  d="m363.5 156.52c4.419 0 8-3.582 8-8s-3.581-8-8-8h-.01c-4.418 0-7.995 3.582-7.995 8s3.587 8 8.005 8z"/><path style="fill: #c1c1c1;"  d="m148.539 355.48h-.01c-4.418 0-7.995 3.582-7.995 8s3.587 8 8.005 8c4.419 0 8-3.582 8-8s-3.581-8-8-8z"/><path style="fill: #c1c1c1;"  d="m408.02 264c4.419 0 8-3.582 8-8s-3.581-8-8-8h-.01c-4.418 0-7.995 3.582-7.995 8s3.587 8 8.005 8z"/><path style="fill: #c1c1c1;"  d="m104.02 248h-.01c-4.418 0-7.995 3.582-7.995 8s3.587 8 8.005 8c4.419 0 8-3.582 8-8s-3.582-8-8-8z"/><path style="fill: #c1c1c1;"  d="m363.5 355.48h-.01c-4.418 0-7.995 3.582-7.995 8s3.587 8 8.005 8c4.419 0 8-3.582 8-8s-3.581-8-8-8z"/><path style="fill: #c1c1c1;"  d="m148.539 156.52c4.419 0 8-3.582 8-8s-3.581-8-8-8h-.01c-4.418 0-7.995 3.582-7.995 8s3.587 8 8.005 8z"/></g></svg>